<svg width="20" height="20" viewBox="0 0 20 20" fill="none" xmlns="http://www.w3.org/2000/svg">
<path d="M6.51491 7.90896C6.26616 7.6376 5.83652 7.61499 5.56516 7.86373C5.2938 8.11247 5.27119 8.54212 5.51993 8.81348L8.93451 12.522C9.07018 12.6577 9.22848 12.7482 9.40938 12.7482C9.40938 12.7482 9.40938 12.7482 9.43199 12.7482C9.6129 12.7482 9.7938 12.6803 9.90687 12.5446L18.5451 3.92906C18.8164 3.6577 18.8164 3.22805 18.5451 2.97931C18.2737 2.73057 17.8441 2.70795 17.5953 2.97931L9.45461 11.0974L6.51491 7.90896Z" fill="#2C7BE5" stroke="#2C7BE5"/>
<path d="M18.387 8.83626C18.0026 8.83626 17.7086 9.13023 17.7086 9.51465C17.7086 13.7207 14.2715 17.1579 10.0654 17.1579C5.8594 17.1579 2.42221 13.7207 2.42221 9.51465C2.42221 5.30862 5.8594 1.87143 10.0654 1.87143C10.4499 1.87143 10.7438 1.57746 10.7438 1.19304C10.7438 0.808618 10.4499 0.514648 10.0654 0.514648C5.11317 0.514648 1.06543 4.56239 1.06543 9.51465C1.06543 14.4669 5.11317 18.5146 10.0654 18.5146C15.0177 18.5146 19.0654 14.4669 19.0654 9.51465C19.0654 9.13023 18.7715 8.83626 18.387 8.83626Z" fill="#2C7BE5" stroke="#2C7BE5"/>
</svg>
