<svg width="34" height="28" viewBox="0 0 34 28" fill="none" xmlns="http://www.w3.org/2000/svg">
<path d="M22.7659 11.0578L13.9917 5.78722C13.9084 5.73724 13.8135 5.71025 13.7164 5.70903C13.6194 5.7078 13.5238 5.73238 13.4393 5.78025C13.3549 5.82812 13.2846 5.89756 13.2358 5.9815C13.1869 6.06544 13.1611 6.16085 13.1611 6.25801V16.7992C13.1611 16.8963 13.1869 16.9917 13.2358 17.0757C13.2846 17.1596 13.3549 17.2291 13.4393 17.2769C13.5238 17.3248 13.6194 17.3494 13.7164 17.3482C13.8135 17.3469 13.9084 17.3199 13.9917 17.27L22.7659 11.9994C22.8471 11.9506 22.9143 11.8816 22.9609 11.7991C23.0076 11.7166 23.0321 11.6234 23.0321 11.5286C23.0321 11.4338 23.0076 11.3406 22.9609 11.2581C22.9143 11.1756 22.8471 11.1066 22.7659 11.0578Z" fill="#A18CE2"/>
<path d="M22.7659 11.0578L13.9917 5.78722C13.9084 5.73724 13.8135 5.71025 13.7164 5.70903C13.6194 5.7078 13.5238 5.73238 13.4393 5.78025C13.3549 5.82812 13.2846 5.89756 13.2358 5.9815C13.1869 6.06544 13.1611 6.16085 13.1611 6.25801V16.7992C13.1611 16.8963 13.1869 16.9917 13.2358 17.0757C13.2846 17.1596 13.3549 17.2291 13.4393 17.2769C13.5238 17.3248 13.6194 17.3494 13.7164 17.3482C13.8135 17.3469 13.9084 17.3199 13.9917 17.27L22.7659 11.9994C22.8471 11.9506 22.9143 11.8816 22.9609 11.7991C23.0076 11.7166 23.0321 11.6234 23.0321 11.5286C23.0321 11.4338 23.0076 11.3406 22.9609 11.2581C22.9143 11.1756 22.8471 11.1066 22.7659 11.0578ZM14.2579 15.8295V7.22771L21.4179 11.5286L14.2579 15.8295Z" fill="#666666"/>
<path d="M31.2581 0H2.74194C2.01498 0.00081739 1.31803 0.290295 0.803996 0.804923C0.28996 1.31955 0.000816448 2.0173 0 2.7451V20.3137C0.000816448 21.0415 0.28996 21.7393 0.803996 22.2539C1.31803 22.7685 2.01498 23.058 2.74194 23.0588H31.2581C31.985 23.058 32.682 22.7685 33.196 22.2539C33.71 21.7393 33.9992 21.0415 34 20.3137V2.7451C33.9992 2.0173 33.71 1.31955 33.196 0.804923C32.682 0.290295 31.985 0.00081739 31.2581 0ZM32.9032 20.3137C32.9027 20.7504 32.7292 21.169 32.4208 21.4778C32.1124 21.7866 31.6942 21.9603 31.2581 21.9608H2.74194C2.30576 21.9603 1.88759 21.7866 1.57917 21.4778C1.27075 21.1691 1.09726 20.7504 1.09677 20.3137V2.7451C1.09726 2.30842 1.27075 1.88977 1.57917 1.58099C1.88759 1.27222 2.30576 1.09853 2.74194 1.09804H31.2581C31.6942 1.09853 32.1124 1.27222 32.4208 1.58099C32.7293 1.88977 32.9027 2.30842 32.9032 2.7451V20.3137Z" fill="#666666"/>
<path d="M30.1612 25.2545H8.7741V24.1564C8.7741 24.0108 8.71632 23.8712 8.61348 23.7682C8.51064 23.6653 8.37115 23.6074 8.22571 23.6074H6.58055C6.43511 23.6074 6.29563 23.6653 6.19278 23.7682C6.08994 23.8712 6.03216 24.0108 6.03216 24.1564V25.2545H1.64507C1.49963 25.2545 1.36014 25.3123 1.2573 25.4153C1.15446 25.5182 1.09668 25.6579 1.09668 25.8035C1.09668 25.9491 1.15446 26.0888 1.2573 26.1917C1.36014 26.2947 1.49963 26.3525 1.64507 26.3525H6.03216V27.4506C6.03216 27.5962 6.08994 27.7358 6.19278 27.8388C6.29563 27.9417 6.43511 27.9996 6.58055 27.9996H8.22571C8.37115 27.9996 8.51064 27.9417 8.61348 27.8388C8.71632 27.7358 8.7741 27.5962 8.7741 27.4506V26.3525H30.1612C30.3066 26.3525 30.4461 26.2947 30.549 26.1917C30.6518 26.0888 30.7096 25.9491 30.7096 25.8035C30.7096 25.6579 30.6518 25.5182 30.549 25.4153C30.4461 25.3123 30.3066 25.2545 30.1612 25.2545ZM7.67733 26.9015H7.12894V24.7055H7.67733V26.9015Z" fill="#666666"/>
<path d="M32.3551 25.2549H31.8067C31.6612 25.2549 31.5218 25.3127 31.4189 25.4157C31.3161 25.5186 31.2583 25.6583 31.2583 25.8039C31.2583 25.9495 31.3161 26.0892 31.4189 26.1921C31.5218 26.2951 31.6612 26.3529 31.8067 26.3529H32.3551C32.5005 26.3529 32.64 26.2951 32.7428 26.1921C32.8457 26.0892 32.9035 25.9495 32.9035 25.8039C32.9035 25.6583 32.8457 25.5186 32.7428 25.4157C32.64 25.3127 32.5005 25.2549 32.3551 25.2549Z" fill="#666666"/>
<path d="M6.58046 2.19629H2.74175C2.59631 2.19629 2.45682 2.25413 2.35398 2.35709C2.25114 2.46005 2.19336 2.5997 2.19336 2.74531C2.19336 2.89092 2.25114 3.03056 2.35398 3.13352C2.45682 3.23649 2.59631 3.29433 2.74175 3.29433H6.58046C6.7259 3.29433 6.86538 3.23649 6.96822 3.13352C7.07107 3.03056 7.12884 2.89092 7.12884 2.74531C7.12884 2.5997 7.07107 2.46005 6.96822 2.35709C6.86538 2.25413 6.7259 2.19629 6.58046 2.19629Z" fill="#666666"/>
<path d="M8.77402 2.19629H8.22563C8.08019 2.19629 7.94071 2.25413 7.83787 2.35709C7.73502 2.46005 7.67725 2.5997 7.67725 2.74531C7.67725 2.89092 7.73502 3.03056 7.83787 3.13352C7.94071 3.23649 8.08019 3.29433 8.22563 3.29433H8.77402C8.91946 3.29433 9.05895 3.23649 9.16179 3.13352C9.26463 3.03056 9.32241 2.89092 9.32241 2.74531C9.32241 2.5997 9.26463 2.46005 9.16179 2.35709C9.05895 2.25413 8.91946 2.19629 8.77402 2.19629Z" fill="#666666"/>
</svg>
